<svg width="640" height="800" viewBox="0 0 640 800" fill="none" xmlns="http://www.w3.org/2000/svg" role="img" aria-labelledby="title desc">
  <title id="title">Professional portrait placeholder</title>
  <desc id="desc">A clean illustrated placeholder portrait for Xujun Wang.</desc>
  <defs>
    <linearGradient id="bg" x1="0" y1="0" x2="1" y2="1">
      <stop offset="0%" stop-color="#E8F0FF"/>
      <stop offset="100%" stop-color="#F5F7FB"/>
    </linearGradient>
    <linearGradient id="jacket" x1="0" y1="0" x2="1" y2="1">
      <stop offset="0%" stop-color="#CBD5E1"/>
      <stop offset="100%" stop-color="#94A3B8"/>
    </linearGradient>
  </defs>
  <rect width="640" height="800" rx="40" fill="url(#bg)"/>
  <circle cx="320" cy="265" r="120" fill="#F2C9A5"/>
  <path d="M210 590C220 480 270 430 320 430C370 430 420 480 430 590V800H210V590Z" fill="url(#jacket)"/>
  <path d="M270 435C285 465 355 465 370 435V520H270V435Z" fill="#E7B58C"/>
  <path d="M230 205C240 135 290 110 320 110C350 110 400 135 410 205C395 170 360 150 320 150C280 150 245 170 230 205Z" fill="#111827"/>
  <rect x="278" y="485" width="84" height="220" rx="18" fill="#0F172A"/>
  <path d="M270 520H370L430 800H210L270 520Z" fill="url(#jacket)"/>
  <path d="M262 522L320 610L378 522H262Z" fill="#FFFFFF"/>
  <circle cx="276" cy="258" r="12" fill="#111827"/>
  <circle cx="364" cy="258" r="12" fill="#111827"/>
  <path d="M280 325C304 345 336 345 360 325" stroke="#A16207" stroke-width="8" stroke-linecap="round"/>
  <path d="M250 228C268 216 286 214 302 220" stroke="#111827" stroke-width="8" stroke-linecap="round"/>
  <path d="M338 220C354 214 372 216 390 228" stroke="#111827" stroke-width="8" stroke-linecap="round"/>
  <text x="320" y="760" text-anchor="middle" font-family="Arial, Helvetica, sans-serif" font-size="28" fill="#334155">Xujun Wang</text>
</svg>
