<svg width="1200" height="760" viewBox="0 0 1200 760" fill="none" xmlns="http://www.w3.org/2000/svg">
  <defs>
    <linearGradient id="bg1" x1="0" y1="0" x2="1" y2="1">
      <stop offset="0%" stop-color="#0F172A"/>
      <stop offset="55%" stop-color="#1D4ED8"/>
      <stop offset="100%" stop-color="#60A5FA"/>
    </linearGradient>
  </defs>
  <rect width="1200" height="760" rx="32" fill="url(#bg1)"/>
  <rect x="70" y="76" width="1060" height="608" rx="26" fill="rgba(255,255,255,0.10)" stroke="rgba(255,255,255,0.18)"/>
  <rect x="110" y="118" width="360" height="28" rx="14" fill="rgba(255,255,255,0.88)"/>
  <rect x="110" y="170" width="300" height="16" rx="8" fill="rgba(255,255,255,0.45)"/>
  <rect x="110" y="214" width="430" height="310" rx="22" fill="#0B1220" stroke="rgba(255,255,255,0.08)"/>
  <rect x="576" y="214" width="504" height="220" rx="22" fill="rgba(255,255,255,0.92)"/>
  <rect x="612" y="252" width="150" height="18" rx="9" fill="#1D4ED8"/>
  <rect x="612" y="292" width="416" height="14" rx="7" fill="#CBD5E1"/>
  <rect x="612" y="322" width="388" height="14" rx="7" fill="#CBD5E1"/>
  <rect x="612" y="352" width="320" height="14" rx="7" fill="#CBD5E1"/>
  <rect x="576" y="460" width="504" height="64" rx="18" fill="rgba(255,255,255,0.18)"/>
  <rect x="110" y="556" width="970" height="90" rx="18" fill="rgba(255,255,255,0.12)"/>
  <text x="110" y="606" font-family="Arial, Helvetica, sans-serif" font-size="36" fill="white">API Quick Start</text>
</svg>
