<svg width="1200" height="760" viewBox="0 0 1200 760" fill="none" xmlns="http://www.w3.org/2000/svg">
  <defs>
    <linearGradient id="bg2" x1="0" y1="0" x2="1" y2="1">
      <stop offset="0%" stop-color="#1E293B"/>
      <stop offset="55%" stop-color="#0F766E"/>
      <stop offset="100%" stop-color="#5EEAD4"/>
    </linearGradient>
  </defs>
  <rect width="1200" height="760" rx="32" fill="url(#bg2)"/>
  <rect x="82" y="84" width="1036" height="592" rx="28" fill="rgba(255,255,255,0.10)" stroke="rgba(255,255,255,0.18)"/>
  <rect x="122" y="128" width="260" height="28" rx="14" fill="rgba(255,255,255,0.88)"/>
  <rect x="122" y="182" width="180" height="190" rx="20" fill="rgba(255,255,255,0.12)"/>
  <rect x="336" y="182" width="260" height="190" rx="20" fill="rgba(255,255,255,0.16)"/>
  <rect x="630" y="182" width="420" height="300" rx="24" fill="rgba(255,255,255,0.92)"/>
  <rect x="666" y="224" width="156" height="18" rx="9" fill="#0F766E"/>
  <rect x="666" y="266" width="330" height="14" rx="7" fill="#CBD5E1"/>
  <rect x="666" y="296" width="296" height="14" rx="7" fill="#CBD5E1"/>
  <rect x="666" y="336" width="250" height="98" rx="14" fill="#0B1220"/>
  <rect x="122" y="420" width="474" height="188" rx="24" fill="#0B1220" stroke="rgba(255,255,255,0.08)"/>
  <text x="122" y="634" font-family="Arial, Helvetica, sans-serif" font-size="36" fill="white">SDK Integration Guide</text>
</svg>
