<svg width="1200" height="760" viewBox="0 0 1200 760" fill="none" xmlns="http://www.w3.org/2000/svg">
  <defs>
    <linearGradient id="bg3" x1="0" y1="0" x2="1" y2="1">
      <stop offset="0%" stop-color="#111827"/>
      <stop offset="58%" stop-color="#7C3AED"/>
      <stop offset="100%" stop-color="#D8B4FE"/>
    </linearGradient>
  </defs>
  <rect width="1200" height="760" rx="32" fill="url(#bg3)"/>
  <rect x="82" y="82" width="1036" height="596" rx="28" fill="rgba(255,255,255,0.10)" stroke="rgba(255,255,255,0.18)"/>
  <rect x="120" y="126" width="322" height="28" rx="14" fill="rgba(255,255,255,0.88)"/>
  <rect x="120" y="192" width="400" height="360" rx="24" fill="rgba(255,255,255,0.94)"/>
  <rect x="560" y="192" width="520" height="360" rx="24" fill="rgba(255,255,255,0.16)"/>
  <rect x="160" y="240" width="130" height="22" rx="11" fill="#7C3AED"/>
  <rect x="160" y="292" width="280" height="18" rx="9" fill="#CBD5E1"/>
  <rect x="160" y="332" width="240" height="18" rx="9" fill="#CBD5E1"/>
  <rect x="600" y="240" width="150" height="22" rx="11" fill="rgba(255,255,255,0.85)"/>
  <rect x="600" y="292" width="360" height="18" rx="9" fill="rgba(255,255,255,0.50)"/>
  <rect x="600" y="332" width="320" height="18" rx="9" fill="rgba(255,255,255,0.50)"/>
  <rect x="120" y="584" width="960" height="54" rx="18" fill="rgba(255,255,255,0.14)"/>
  <text x="120" y="620" font-family="Arial, Helvetica, sans-serif" font-size="36" fill="white">Localization and UI Copy Review</text>
</svg>
